<svg xmlns="http://www.w3.org/2000/svg" xmlns:xlink="http://www.w3.org/1999/xlink" viewBox="0 0 285.43 161.8"><defs><style>.cls-1{isolation:isolate;}.cls-2{fill:#231f20;}.cls-3{fill:#34283b;}.cls-4{fill:url(#radial-gradient);}.cls-5{fill:#827e8c;}.cls-6{fill:#aeacb5;}.cls-7{fill:url(#radial-gradient-2);}.cls-8{fill:url(#radial-gradient-3);}.cls-9{fill:#94909c;}.cls-10{fill:#c3c2c0;}.cls-11{fill:url(#radial-gradient-4);}.cls-12{fill:#c0bab8;}.cls-13{fill:#ccc;}.cls-14{fill:#f7f7f6;}.cls-15{fill:#da1f26;}.cls-16{fill:url(#radial-gradient-5);}.cls-17{fill:#212121;}.cls-18{fill:#1f1226;}.cls-19{fill:#201328;}.cls-20{fill:#7d7682;}.cls-21{fill:url(#radial-gradient-6);}.cls-22{fill:#d2cfcd;opacity:0.85;}.cls-22,.cls-36{mix-blend-mode:multiply;}.cls-23{fill:url(#radial-gradient-7);}.cls-24{fill:url(#radial-gradient-8);}.cls-25{fill:url(#radial-gradient-9);}.cls-26{fill:url(#radial-gradient-10);}.cls-27{fill:#7f7984;}.cls-28{opacity:0.95;mix-blend-mode:overlay;}.cls-29{fill:url(#radial-gradient-11);}.cls-30{fill:url(#radial-gradient-12);}.cls-31{fill:url(#radial-gradient-13);}.cls-32{fill:url(#radial-gradient-14);}.cls-33{fill:url(#radial-gradient-15);}.cls-34{fill:url(#radial-gradient-16);}.cls-35{fill:url(#radial-gradient-17);}.cls-36{fill:url(#radial-gradient-18);}.cls-37{fill:url(#radial-gradient-19);}</style><radialGradient id="radial-gradient" cx="178.11" cy="110.93" r="51.61" gradientUnits="userSpaceOnUse"><stop offset="0.04" stop-color="#f2f2f2"/><stop offset="0.49" stop-color="#f5f5f7"/><stop offset="0.87" stop-color="#c8c6cc"/><stop offset="1" stop-color="#e0e1e0"/></radialGradient><radialGradient id="radial-gradient-2" cx="180.16" cy="42.64" r="48.19" gradientUnits="userSpaceOnUse"><stop offset="0.04" stop-color="#f2f2f2"/><stop offset="0.56" stop-color="#f5f5f7"/><stop offset="0.87" stop-color="#c8c6cc"/><stop offset="1" stop-color="#e0e1e0"/></radialGradient><radialGradient id="radial-gradient-3" cx="179.24" cy="41.46" r="29.95" gradientUnits="userSpaceOnUse"><stop offset="0" stop-color="#62c3de"/><stop offset="0.22" stop-color="#60c0db"/><stop offset="0.4" stop-color="#5bb5d2"/><stop offset="0.58" stop-color="#53a3c2"/><stop offset="0.74" stop-color="#478aad"/><stop offset="0.9" stop-color="#386b91"/><stop offset="1" stop-color="#2d547d"/></radialGradient><radialGradient id="radial-gradient-4" cx="177.82" cy="11.36" r="7.11" gradientUnits="userSpaceOnUse"><stop offset="0.04" stop-color="#f2f2f2"/><stop offset="0.49" stop-color="#f5f5f7"/><stop offset="1" stop-color="#e0e1e0"/></radialGradient><radialGradient id="radial-gradient-5" cx="182.06" cy="113.86" r="5.8" xlink:href="#radial-gradient"/><radialGradient id="radial-gradient-6" cx="116.8" cy="107.38" r="15.65" xlink:href="#radial-gradient"/><radialGradient id="radial-gradient-7" cx="109.31" cy="148.07" r="8.67" xlink:href="#radial-gradient"/><radialGradient id="radial-gradient-8" cx="172.18" cy="148.52" r="5.69" xlink:href="#radial-gradient"/><radialGradient id="radial-gradient-9" cx="173.44" cy="151.65" r="5.96" xlink:href="#radial-gradient"/><radialGradient id="radial-gradient-10" cx="173.34" cy="154.79" r="5.99" xlink:href="#radial-gradient"/><radialGradient id="radial-gradient-11" cx="168.21" cy="30.47" r="4.56" gradientUnits="userSpaceOnUse"><stop offset="0" stop-color="#f5fbfd"/><stop offset="0.39" stop-color="#f3fafc"/><stop offset="0.53" stop-color="#ecf8fb"/><stop offset="0.63" stop-color="#e1f3f7"/><stop offset="0.71" stop-color="#d0ecf3"/><stop offset="0.72" stop-color="#cdebf2"/><stop offset="1" stop-color="#b6e3f1"/></radialGradient><radialGradient id="radial-gradient-12" cx="188.85" cy="28.7" r="3.95" xlink:href="#radial-gradient-11"/><radialGradient id="radial-gradient-13" cx="168.63" cy="39.31" r="5.84" xlink:href="#radial-gradient-11"/><radialGradient id="radial-gradient-14" cx="192.52" cy="37.28" r="5.14" xlink:href="#radial-gradient-11"/><radialGradient id="radial-gradient-15" cx="181.46" cy="50.73" r="9.13" xlink:href="#radial-gradient-11"/><radialGradient id="radial-gradient-16" cx="137.09" cy="38.15" r="7.86" xlink:href="#radial-gradient"/><radialGradient id="radial-gradient-17" cx="136.66" cy="40.81" r="6.2" xlink:href="#radial-gradient"/><radialGradient id="radial-gradient-18" cx="135.36" cy="43.36" r="4.13" gradientUnits="userSpaceOnUse"><stop offset="0.87" stop-color="#c8c6cc"/><stop offset="1" stop-color="#e0e1e0"/></radialGradient><radialGradient id="radial-gradient-19" cx="134.07" cy="36.99" r="7.14" xlink:href="#radial-gradient"/></defs><title>Machine-Learning-Homework-Help</title><g class="cls-1"><g id="Layer_1" data-name="Layer 1"><path class="cls-2" d="M29.69,31.61h3.24v12.9H30.69v-10l.09.57-2.49,8H26.12l-2.49-7.83.09-.75v10H21.49V31.61h3.23l2.49,8.69Z" transform="translate(-10.96 -3.89)"/><path class="cls-2" d="M35.91,43.93a2.83,2.83,0,0,1-.74-2.14,2.52,2.52,0,0,1,.83-2,3.87,3.87,0,0,1,2.49-.68h2.33l.12,1.85H38.5a1.38,1.38,0,0,0-.84.22.8.8,0,0,0-.28.66.74.74,0,0,0,.35.67,2,2,0,0,0,1.06.22,3.84,3.84,0,0,0,1.47-.22.73.73,0,0,0,.48-.7l.19,1.34a1.24,1.24,0,0,1-.47.85,2.73,2.73,0,0,1-1,.52,5,5,0,0,1-1.29.17A3.14,3.14,0,0,1,35.91,43.93Zm4.83-5.26a1.21,1.21,0,0,0-.43-1,1.92,1.92,0,0,0-1.22-.34,3.32,3.32,0,0,0-1,.17,3,3,0,0,0-.91.47L35.63,36.5a3.62,3.62,0,0,1,1.47-1,5.46,5.46,0,0,1,2-.35,4.82,4.82,0,0,1,2.08.4,3,3,0,0,1,1.32,1.17A3.6,3.6,0,0,1,43,38.59v5.92H40.74Z" transform="translate(-10.96 -3.89)"/><path class="cls-2" d="M47.05,44.14a3.38,3.38,0,0,1-1.44-1.46,5.12,5.12,0,0,1-.49-2.31v-1a5,5,0,0,1,.49-2.29,3.34,3.34,0,0,1,1.44-1.44,4.86,4.86,0,0,1,2.28-.49,5.68,5.68,0,0,1,1.44.17,4.22,4.22,0,0,1,1.21.5,3.16,3.16,0,0,1,.9.8l-1.59,1.52a2.66,2.66,0,0,0-.8-.48,2.55,2.55,0,0,0-1-.17,2,2,0,0,0-1.44.49,1.84,1.84,0,0,0-.51,1.39v1a1.92,1.92,0,0,0,.51,1.43,2,2,0,0,0,1.44.5,2.62,2.62,0,0,0,1-.19,2.16,2.16,0,0,0,.79-.53l1.59,1.61A3.48,3.48,0,0,1,52,44a4.51,4.51,0,0,1-1.21.49,6,6,0,0,1-1.43.17A4.86,4.86,0,0,1,47.05,44.14Z" transform="translate(-10.96 -3.89)"/><path class="cls-2" d="M54.54,31.61H57v12.9H54.54Zm5.38,7.32a1.39,1.39,0,0,0-.39-1,1.54,1.54,0,0,0-1.11-.37,1.43,1.43,0,0,0-1.06.37A1.5,1.5,0,0,0,57,38.94l-.19-2a3.54,3.54,0,0,1,1-1.3,2.42,2.42,0,0,1,1.48-.43,2.77,2.77,0,0,1,2.28,1,4.27,4.27,0,0,1,.8,2.77v5.59H59.92Z" transform="translate(-10.96 -3.89)"/><path class="cls-2" d="M64.66,31.61h2.46V34H64.66Zm0,3.69h2.46v9.21H64.66Z" transform="translate(-10.96 -3.89)"/><path class="cls-2" d="M69.4,35.3h2.46v9.21H69.4Zm5.38,3.63a1.39,1.39,0,0,0-.39-1,1.54,1.54,0,0,0-1.11-.37,1.42,1.42,0,0,0-1,.37,1.46,1.46,0,0,0-.37,1.06l-.19-2a3.44,3.44,0,0,1,1-1.3,2.39,2.39,0,0,1,1.47-.43,2.77,2.77,0,0,1,2.28,1,4.22,4.22,0,0,1,.81,2.77v5.59H74.78Z" transform="translate(-10.96 -3.89)"/><path class="cls-2" d="M81.35,44.15a3.32,3.32,0,0,1-1.46-1.41,4.65,4.65,0,0,1-.5-2.23v-1a5.22,5.22,0,0,1,.48-2.34,3.37,3.37,0,0,1,1.4-1.47,4.5,4.5,0,0,1,2.22-.5,3.6,3.6,0,0,1,2.09.6,3.67,3.67,0,0,1,1.32,1.75,7.62,7.62,0,0,1,.45,2.77v.61H81V39.25h4.12l0-.21a2.1,2.1,0,0,0-.5-1.23,1.43,1.43,0,0,0-1.09-.44,1.81,1.81,0,0,0-1.38.53,2.11,2.11,0,0,0-.49,1.48v1.17A1.89,1.89,0,0,0,82.16,42a2,2,0,0,0,1.49.52,3.06,3.06,0,0,0,1-.17,2.9,2.9,0,0,0,.87-.5l1.61,1.41a5.33,5.33,0,0,1-1.63,1,5.25,5.25,0,0,1-4.13-.13Z" transform="translate(-10.96 -3.89)"/><path class="cls-2" d="M19.08,53.41h2.46v12.9H19.08ZM20.18,64h7.64v2.35H20.18Z" transform="translate(-10.96 -3.89)"/><path class="cls-2" d="M31.12,66a3.32,3.32,0,0,1-1.46-1.41,4.65,4.65,0,0,1-.5-2.23v-1a5.22,5.22,0,0,1,.48-2.34A3.37,3.37,0,0,1,31,57.47a4.5,4.5,0,0,1,2.22-.5,3.6,3.6,0,0,1,2.09.6,3.67,3.67,0,0,1,1.32,1.75,7.62,7.62,0,0,1,.45,2.77v.6H30.76V61.05h4.12l0-.21a2.1,2.1,0,0,0-.5-1.23,1.43,1.43,0,0,0-1.09-.44,1.81,1.81,0,0,0-1.38.53,2.11,2.11,0,0,0-.49,1.48v1.17a1.89,1.89,0,0,0,.54,1.45,2,2,0,0,0,1.49.52,3,3,0,0,0,1-.17,3.08,3.08,0,0,0,.88-.5l1.6,1.41a5.33,5.33,0,0,1-1.63,1,4.89,4.89,0,0,1-1.83.36A4.94,4.94,0,0,1,31.12,66Z" transform="translate(-10.96 -3.89)"/><path class="cls-2" d="M39.57,65.73a2.8,2.8,0,0,1-.74-2.14,2.49,2.49,0,0,1,.83-2.05,3.86,3.86,0,0,1,2.48-.68h2.34l.12,1.85H42.15a1.35,1.35,0,0,0-.83.22.77.77,0,0,0-.28.66.74.74,0,0,0,.35.67,2,2,0,0,0,1.06.22,3.84,3.84,0,0,0,1.47-.22.75.75,0,0,0,.48-.7l.18,1.34a1.25,1.25,0,0,1-.46.85,2.73,2.73,0,0,1-1,.52,5,5,0,0,1-1.3.17A3.13,3.13,0,0,1,39.57,65.73Zm4.83-5.26a1.19,1.19,0,0,0-.44-1,1.87,1.87,0,0,0-1.21-.34,3.11,3.11,0,0,0-1,.17,3,3,0,0,0-.9.47L39.28,58.3a3.82,3.82,0,0,1,1.47-1,5.73,5.73,0,0,1,2-.34,4.85,4.85,0,0,1,2.08.4,2.88,2.88,0,0,1,1.31,1.17,3.5,3.5,0,0,1,.46,1.85v5.92H44.4Z" transform="translate(-10.96 -3.89)"/><path class="cls-2" d="M49.05,57.1h2.63v9.21H49.05Zm4.8,2.3a1.89,1.89,0,0,0-.6-.09,1.46,1.46,0,0,0-1.16.47,2,2,0,0,0-.41,1.32l-.18-2.4a3.26,3.26,0,0,1,1-1.28A2.24,2.24,0,0,1,53.85,57a2.93,2.93,0,0,1,1,.18,2.37,2.37,0,0,1,.82.53l-1.43,2A1,1,0,0,0,53.85,59.4Z" transform="translate(-10.96 -3.89)"/><path class="cls-2" d="M56.89,57.1h2.45v9.21H56.89Zm5.38,3.63a1.43,1.43,0,0,0-.39-1,1.55,1.55,0,0,0-1.11-.37,1.43,1.43,0,0,0-1.06.37,1.5,1.5,0,0,0-.37,1.06l-.19-2a3.44,3.44,0,0,1,1-1.3A2.42,2.42,0,0,1,61.64,57a2.76,2.76,0,0,1,2.27,1,4.26,4.26,0,0,1,.81,2.78v5.59H62.27Z" transform="translate(-10.96 -3.89)"/><path class="cls-2" d="M67,53.41h2.45v2.43H67Zm0,3.69h2.45v9.21H67Z" transform="translate(-10.96 -3.89)"/><path class="cls-2" d="M71.75,57.1h2.46v9.21H71.75Zm5.38,3.63a1.39,1.39,0,0,0-.39-1,1.54,1.54,0,0,0-1.11-.37,1.42,1.42,0,0,0-1,.37,1.46,1.46,0,0,0-.37,1.06l-.19-2a3.44,3.44,0,0,1,1-1.3A2.39,2.39,0,0,1,76.5,57a2.8,2.8,0,0,1,2.28,1,4.26,4.26,0,0,1,.81,2.78v5.59H77.13Z" transform="translate(-10.96 -3.89)"/><path class="cls-2" d="M83.18,66a2.93,2.93,0,0,1-1.07-1.36,5.56,5.56,0,0,1-.37-2.15V61a5.66,5.66,0,0,1,.37-2.17,2.86,2.86,0,0,1,1.07-1.37A2.92,2.92,0,0,1,84.87,57a2.29,2.29,0,0,1,1.36.43,3.13,3.13,0,0,1,1,1.25l-.19,2a1.78,1.78,0,0,0-.16-.8,1.2,1.2,0,0,0-.47-.5,1.6,1.6,0,0,0-.75-.17,1.3,1.3,0,0,0-1.07.46A2,2,0,0,0,84.2,61v1.47a1.87,1.87,0,0,0,.38,1.27,1.33,1.33,0,0,0,1.07.46A1.6,1.6,0,0,0,86.4,64a1.23,1.23,0,0,0,.47-.49,1.65,1.65,0,0,0,.16-.77l.13,2.1A2.57,2.57,0,0,1,86.28,66a2.46,2.46,0,0,1-1.41.41A3,3,0,0,1,83.18,66Zm.14,3.69A3.2,3.2,0,0,1,82,68.58l1.65-1.5a2.28,2.28,0,0,0,.76.52,2.34,2.34,0,0,0,.91.18,1.84,1.84,0,0,0,1.26-.42A1.42,1.42,0,0,0,87,66.21V57.1h2.46V66A4.55,4.55,0,0,1,89,68.2a3.18,3.18,0,0,1-1.43,1.38,5,5,0,0,1-2.26.47A4.87,4.87,0,0,1,83.32,69.66Z" transform="translate(-10.96 -3.89)"/><path class="cls-2" d="M11,75.21h2.45V88.1H11Zm1.13,5.33h7.6v2.34h-7.6Zm6-5.33h2.46V88.1H18.09Z" transform="translate(-10.96 -3.89)"/><path class="cls-2" d="M24.81,87.77a3.18,3.18,0,0,1-1.37-1.37A4.7,4.7,0,0,1,23,84.23v-1.5a4.57,4.57,0,0,1,.47-2.14,3.11,3.11,0,0,1,1.37-1.36,5.27,5.27,0,0,1,4.35,0,3.11,3.11,0,0,1,1.37,1.36A4.45,4.45,0,0,1,31,82.73v1.52a4.53,4.53,0,0,1-.47,2.16,3.21,3.21,0,0,1-1.37,1.36,5.27,5.27,0,0,1-4.35,0Zm3.32-2.31a1.65,1.65,0,0,0,.42-1.21V82.73a1.62,1.62,0,0,0-.42-1.2A1.54,1.54,0,0,0,27,81.1a1.55,1.55,0,0,0-1.15.43,1.66,1.66,0,0,0-.4,1.2v1.52a1.68,1.68,0,0,0,.4,1.21,1.75,1.75,0,0,0,2.3,0Z" transform="translate(-10.96 -3.89)"/><path class="cls-2" d="M33.25,78.9H35.7v9.2H33.25Zm5.42,3.89a1.79,1.79,0,0,0-.4-1.25,1.48,1.48,0,0,0-1.14-.44,1.43,1.43,0,0,0-1.06.38,1.48,1.48,0,0,0-.37,1.06l-.19-2a3.4,3.4,0,0,1,1-1.29A2.43,2.43,0,0,1,38,78.76a2.78,2.78,0,0,1,2.76,1.85,5.86,5.86,0,0,1,.37,2.17V88.1H38.67Zm5.42,0a1.84,1.84,0,0,0-.39-1.25,1.6,1.6,0,0,0-2.19,0,1.69,1.69,0,0,0-.38,1.19l-.46-2.13a3.39,3.39,0,0,1,1.14-1.35,2.72,2.72,0,0,1,1.57-.48,3,3,0,0,1,1.71.47,3,3,0,0,1,1.09,1.38,5.66,5.66,0,0,1,.37,2.17V88.1H44.09Z" transform="translate(-10.96 -3.89)"/><path class="cls-2" d="M50.66,87.75a3.29,3.29,0,0,1-1.45-1.41,4.56,4.56,0,0,1-.51-2.23v-1a5.21,5.21,0,0,1,.48-2.33,3.37,3.37,0,0,1,1.4-1.47,4.5,4.5,0,0,1,2.22-.51,3.53,3.53,0,0,1,2.09.61,3.67,3.67,0,0,1,1.32,1.75,7.57,7.57,0,0,1,.46,2.77v.6H50.3V82.85h4.12l0-.21a2.17,2.17,0,0,0-.51-1.23A1.42,1.42,0,0,0,52.8,81a1.81,1.81,0,0,0-1.38.53A2.09,2.09,0,0,0,50.94,83v1.17a1.9,1.9,0,0,0,.53,1.45,2,2,0,0,0,1.49.52,2.78,2.78,0,0,0,1-.18,2.92,2.92,0,0,0,.88-.49l1.6,1.41a5.21,5.21,0,0,1-1.63,1,4.89,4.89,0,0,1-1.83.36A5,5,0,0,1,50.66,87.75Z" transform="translate(-10.96 -3.89)"/><path class="cls-2" d="M57.65,78.9H60l1.65,5.68,2-5.68h1.46l2,5.68,1.65-5.68h2.36l-2.87,9.2H66.35l-2-6-2,6H60.52Z" transform="translate(-10.96 -3.89)"/><path class="cls-2" d="M74.06,87.77a3.2,3.2,0,0,1-1.38-1.37,4.7,4.7,0,0,1-.47-2.17v-1.5a4.57,4.57,0,0,1,.47-2.14,3.13,3.13,0,0,1,1.38-1.36,5.24,5.24,0,0,1,4.34,0,3.18,3.18,0,0,1,1.38,1.36,4.57,4.57,0,0,1,.47,2.14v1.52a4.65,4.65,0,0,1-.47,2.16,3.29,3.29,0,0,1-1.38,1.36,5.24,5.24,0,0,1-4.34,0Zm3.32-2.31a1.69,1.69,0,0,0,.41-1.21V82.73a1.66,1.66,0,0,0-.41-1.2,1.56,1.56,0,0,0-1.16-.43,1.51,1.51,0,0,0-1.14.43,1.66,1.66,0,0,0-.41,1.2v1.52a1.68,1.68,0,0,0,.4,1.21,1.49,1.49,0,0,0,1.15.43A1.52,1.52,0,0,0,77.38,85.46Z" transform="translate(-10.96 -3.89)"/><path class="cls-2" d="M82.49,78.9h2.63v9.2H82.49Zm4.8,2.29a2.24,2.24,0,0,0-.61-.09,1.43,1.43,0,0,0-1.15.48,2,2,0,0,0-.41,1.32l-.18-2.4a3.19,3.19,0,0,1,1-1.28,2.22,2.22,0,0,1,1.35-.46,2.76,2.76,0,0,1,1,.19,2.37,2.37,0,0,1,.82.53l-1.44,2A1.12,1.12,0,0,0,87.29,81.19Z" transform="translate(-10.96 -3.89)"/><path class="cls-2" d="M90.32,75.21h2.46V88.1H90.32Zm1.15,9.58,4.34-5.89h2.6L91.8,87.46Zm2.21-1.44,2-1.21,3.17,6H96Z" transform="translate(-10.96 -3.89)"/><path class="cls-2" d="M36.82,97h2.46V109.9H36.82ZM38,102.34h7.6v2.34H38ZM44,97h2.46V109.9H44Z" transform="translate(-10.96 -3.89)"/><path class="cls-2" d="M50.8,109.55a3.27,3.27,0,0,1-1.46-1.41,4.56,4.56,0,0,1-.5-2.23v-1a5.21,5.21,0,0,1,.48-2.33,3.32,3.32,0,0,1,1.4-1.47,4.5,4.5,0,0,1,2.22-.51,3.5,3.5,0,0,1,2.08.61,3.75,3.75,0,0,1,1.33,1.75,7.58,7.58,0,0,1,.45,2.77v.6H50.43v-1.64h4.13l0-.21a2,2,0,0,0-.51-1.23,1.41,1.41,0,0,0-1.08-.44,1.81,1.81,0,0,0-1.38.52,2.09,2.09,0,0,0-.49,1.49V106a1.94,1.94,0,0,0,.53,1.45,2.06,2.06,0,0,0,1.5.52,2.73,2.73,0,0,0,1-.18,2.81,2.81,0,0,0,.88-.49l1.61,1.41a5.45,5.45,0,0,1-1.63,1,5,5,0,0,1-1.83.36A4.92,4.92,0,0,1,50.8,109.55Z" transform="translate(-10.96 -3.89)"/><path class="cls-2" d="M61.41,106.86a.67.67,0,0,0,.19.52.78.78,0,0,0,.55.18h.42v2.34H61.31a2.29,2.29,0,0,1-1.74-.64,2.47,2.47,0,0,1-.62-1.8V97h2.46Z" transform="translate(-10.96 -3.89)"/><path class="cls-2" d="M64.18,100.7h2.46v13H64.18Zm3.21,8.92a2.36,2.36,0,0,1-.88-1.16l.13-2.1a1.68,1.68,0,0,0,.16.77,1.11,1.11,0,0,0,.47.49,1.54,1.54,0,0,0,.75.16,1.33,1.33,0,0,0,1.07-.45,2,2,0,0,0,.38-1.28v-1.46a2,2,0,0,0-.38-1.31,1.31,1.31,0,0,0-1.07-.46,1.44,1.44,0,0,0-.75.17,1,1,0,0,0-.47.5,1.78,1.78,0,0,0-.16.8l-.19-2a3.07,3.07,0,0,1,1-1.25,2.3,2.3,0,0,1,1.36-.44,3,3,0,0,1,1.69.47,3,3,0,0,1,1.07,1.38,5.86,5.86,0,0,1,.37,2.17v1.47a5.8,5.8,0,0,1-.37,2.16A2.8,2.8,0,0,1,68.8,110,2.35,2.35,0,0,1,67.39,109.62Z" transform="translate(-10.96 -3.89)"/><path class="cls-3" d="M203.5,83.71s7.27-2.74,10-.71,7.56,6.58,6.45,10.44S203.5,83.71,203.5,83.71Z" transform="translate(-10.96 -3.89)"/><path class="cls-4" d="M221.34,151.51s12.56-47.84-.61-59.19a56,56,0,0,0-33.85-13.78c-6.49-.21-36.08,2.63-36.08,2.63s-27,6.89-30.4,9.73S124,145,134.38,158Z" transform="translate(-10.96 -3.89)"/><path class="cls-5" d="M175.08,152.37l1.26,0c2.41-10,5.83-26.6,6.59-43,.7-15.05-3.2-24.75-6.7-30.35l-1.44.1c3.47,5.35,7.63,15,6.92,30.2C181,125.77,177.48,142.47,175.08,152.37Z" transform="translate(-10.96 -3.89)"/><path class="cls-6" d="M142.92,152c1.56-7.32,5.72-13.34,7.49-20.5,3.64-14.7,3.11-41.58-15.59-45.89-6.51,1.93-12.87,4-14.42,5.32C117,93.74,124,145,134.38,158l8.37-.15C142.81,157.5,142.85,152.3,142.92,152Z" transform="translate(-10.96 -3.89)"/><path class="cls-3" d="M141.38,68.15s6.23,14,8.2,14.75,21.29,3.95,29.65,3,15.86-6.37,15.86-6.37,2.38-10,1.77-14S141.38,68.15,141.38,68.15Z" transform="translate(-10.96 -3.89)"/><path class="cls-7" d="M186.34,6.78a38.15,38.15,0,0,0-19.77-2.56c-8.07,1-21.31,3.25-26.51,7.63-7.61,6.41-18,21.7-15.31,44.33a6,6,0,0,0,.56,2c1.41,2.91,6.78,11,24.43,17a4.74,4.74,0,0,0,.5.15c3.36.86,39.64,9.47,61.13-11.64a6.09,6.09,0,0,0,1.75-3.72c.63-5.88,1.39-22.37-7.59-36.09C199.33,14.35,192.55,9.44,186.34,6.78Z" transform="translate(-10.96 -3.89)"/><path class="cls-6" d="M136.84,15c-7,7.6-14.39,21.66-12.09,41.21a6,6,0,0,0,.56,2c1.33,2.74,6.17,10.07,21.45,15.9-4.88-7.4-5-16.58-3.78-25.84.85-6.42,4.56-11.62,5.77-17.82C149.21,28,148.26,17.73,136.84,15Z" transform="translate(-10.96 -3.89)"/><path class="cls-8" d="M210.19,48.54S207.65,25.84,197,22.59s-40.89,1.83-44.13,7.71-5.68,18.85-4.06,21.28S163,61.92,175.53,61.31,211.25,54.56,210.19,48.54Z" transform="translate(-10.96 -3.89)"/><path class="cls-3" d="M210.19,48.54S207.65,25.84,197,22.59s-40.89,1.83-44.13,7.71a24.06,24.06,0,0,0-1.29,2.81,21.46,21.46,0,0,1,1.07-2.29c3.1-5.61,31.68-9.49,41.87-6.4s11.65,23.51,11.65,23.51c1,5.74-19.86,10.52-31.84,11.1s-24-5.6-25.54-7.92a4.73,4.73,0,0,1-.48-2.25,5.56,5.56,0,0,0,.5,2.72C150.39,54,163,61.92,175.53,61.31S211.25,54.56,210.19,48.54Z" transform="translate(-10.96 -3.89)"/><path class="cls-5" d="M197.09,13.79c-.62-.55-1.23-1.09-1.84-1.59-6.19-1.15-15.27-2.58-19.8-2-13,1.77-31.31,6.35-39.2,25.5C131.61,47,131.72,59,132.44,66.28q.63.5,1.32,1c-.8-7-1.18-19.43,3.62-31.07,7.64-18.56,25.48-23,38.23-24.76C180.46,10.76,191.12,12.62,197.09,13.79Z" transform="translate(-10.96 -3.89)"/><path class="cls-5" d="M197,62.73c-3.92-.38-29.3,1.69-31.61,4.8l-.39.52a29.22,29.22,0,0,0-4.89,9l1.24.14A28.29,28.29,0,0,1,166,68.78l.39-.52c1.69-2.28,25.88-4.78,30.51-4.32,2.83.29,5.17,4.36,6.06,6.12l1-.65C203,67.42,200.41,63.07,197,62.73Z" transform="translate(-10.96 -3.89)"/><path class="cls-9" d="M172.45,14.3A8.85,8.85,0,0,0,177.56,16c4.05,0,6.23-2.47,5.39-5.64-.53-2-15.82-6.22-16.38-6.15a127.38,127.38,0,0,0-13.88,2.44C156.19,7.09,165.93,10.09,172.45,14.3Z" transform="translate(-10.96 -3.89)"/><path class="cls-10" d="M170.13,7.39a22.31,22.31,0,0,1,7.18,3.67c1.43,1.19,2.65,2.66,4,4A4,4,0,0,0,183,10.37c-.24-.94-1-2.33-4.62-3.55a76.23,76.23,0,0,0-11.76-2.6c-1.45.18-3.08.41-4.78.68C164.61,5.59,167.4,6.43,170.13,7.39Z" transform="translate(-10.96 -3.89)"/><path class="cls-11" d="M183,10.37a6.16,6.16,0,0,0-5.71-3.65c-1.41.21-4,1.74-4.4,3.37a7.25,7.25,0,0,0,.07,4.49A8,8,0,0,0,177.56,16C181.61,16,183.79,13.54,183,10.37Z" transform="translate(-10.96 -3.89)"/><path class="cls-12" d="M180.82,11.43a2.67,2.67,0,0,1-5.32,0,2.67,2.67,0,0,1,5.32,0Z" transform="translate(-10.96 -3.89)"/><ellipse class="cls-13" cx="170.1" cy="110.4" rx="14.59" ry="13.45"/><path class="cls-14" d="M193.77,114.29c0,6.47-5.69,11.72-12.72,11.72s-12.72-5.25-12.72-11.72,5.7-11.73,12.72-11.73S193.77,107.81,193.77,114.29Z" transform="translate(-10.96 -3.89)"/><path class="cls-15" d="M190.86,113.86c0,4.48-3.94,8.11-8.8,8.11s-8.79-3.63-8.79-8.11,3.94-8.11,8.79-8.11S190.86,109.38,190.86,113.86Z" transform="translate(-10.96 -3.89)"/><path class="cls-16" d="M188.09,113.86a6,6,0,1,1-6-5.56A5.81,5.81,0,0,1,188.09,113.86Z" transform="translate(-10.96 -3.89)"/><rect class="cls-17" x="244.05" y="141.26" width="8.31" height="5.59"/><rect class="cls-17" x="179.13" y="141.26" width="8.31" height="5.59"/><path class="cls-18" d="M199.29,87.72,289.5,90a6.65,6.65,0,0,1,4,.29c.94.42.48,2,.38,2.52L276.2,147.89a1.66,1.66,0,0,1-1.65,1.2l-95.34-.31c-1,0-1.61-.7-1.34-1.5l19.91-58.52A1.77,1.77,0,0,1,199.29,87.72Z" transform="translate(-10.96 -3.89)"/><polygon class="cls-17" points="193.61 85.77 283.68 88.66 266.5 139.94 174.62 141.23 193.61 85.77"/><path class="cls-3" d="M201.68,87.76,295,89.87c1.57-.11,1.51,1.15,1.36,1.89l-17.77,56.12a1.65,1.65,0,0,1-1.65,1.2l-95.2-.3c-1,0-1.61-.71-1.34-1.5l19.82-58.49A1.76,1.76,0,0,1,201.68,87.76Z" transform="translate(-10.96 -3.89)"/><path class="cls-19" d="M238.33,121.79c-15.6-3.48-29.93-8.79-42.59-19.93l-15.39,45.42c-.27.79.35,1.49,1.34,1.5l95.2.3a1.65,1.65,0,0,0,1.65-1.2l9.73-30.72C273.23,120.61,253.89,125.25,238.33,121.79Z" transform="translate(-10.96 -3.89)"/><path class="cls-3" d="M140.9,156.59H277.68a1.87,1.87,0,0,0,1.72-2V152a1.87,1.87,0,0,0-1.72-2H140.9a1.86,1.86,0,0,0-1.71,2v2.64A1.86,1.86,0,0,0,140.9,156.59Z" transform="translate(-10.96 -3.89)"/><path class="cls-18" d="M140.9,150h44.6l-1.32,6.63H140.9a1.86,1.86,0,0,1-1.71-2V152A1.86,1.86,0,0,1,140.9,150Z" transform="translate(-10.96 -3.89)"/><path class="cls-20" d="M243.3,116.85a3.12,3.12,0,0,1-3.6,2.07A2.36,2.36,0,0,1,238,116a3.22,3.22,0,0,1,3.16-2.46A2.33,2.33,0,0,1,243.3,116.85Z" transform="translate(-10.96 -3.89)"/><path class="cls-3" d="M109.89,117.53s-5.93,22.64-5,30.37,8.23,0,8.23,0,8.58-23.71,8.8-26.72S112.58,115.37,109.89,117.53Z" transform="translate(-10.96 -3.89)"/><path class="cls-3" d="M129.12,87.15a55,55,0,0,0-8.2,2s-2.61,36-1,36.58,11.55-.7,14.93-2.8S143.26,101.16,129.12,87.15Z" transform="translate(-10.96 -3.89)"/><path class="cls-21" d="M108.17,121s-8.37-8.8,0-23.19,17.72-8.91,20.29,1-2.57,26.19-8.59,27c-2,.26-4.48-.44-7-1.67A21.06,21.06,0,0,1,108.17,121Z" transform="translate(-10.96 -3.89)"/><path class="cls-22" d="M127.18,110.51c-7.34,5.46-15.44-1.91-18.81-9.55-6,11.84.77,19,.77,19a18.48,18.48,0,0,0,4.14,2.71,11.65,11.65,0,0,0,6.21,1.48c3.53-.45,6.7-6.91,7.79-13.77Z" transform="translate(-10.96 -3.89)"/><path class="cls-3" d="M116.54,145s34.84,5.89,37.42,6.37-1.78,5.19-1.78,5.19l-44.66-.45Z" transform="translate(-10.96 -3.89)"/><path class="cls-3" d="M121,148.62c-.16,5.3-5.73,8.57-11.4,7.42-4.8-1-8-4.85-7.73-8.75s3.77-7.13,8.51-7.41C116,139.55,121.17,143.4,121,148.62Z" transform="translate(-10.96 -3.89)"/><path class="cls-23" d="M118.42,148.62c-.15,5.3-5.45,8.57-10.86,7.42-4.56-1-7.58-4.85-7.35-8.75s3.59-7.13,8.1-7.41C113.63,139.55,118.57,143.4,118.42,148.62Z" transform="translate(-10.96 -3.89)"/><path class="cls-22" d="M103.57,144.26A4.59,4.59,0,0,1,103,143a6.63,6.63,0,0,0-2,4.34c-.21,3.47,2.48,6.92,6.54,7.78,4.81,1,9.5-1.9,9.63-6.6,0,0,0-.09,0-.13A10.58,10.58,0,0,1,103.57,144.26Z" transform="translate(-10.96 -3.89)"/><path class="cls-5" d="M108.17,153.59l-.41-.06a6.09,6.09,0,0,1-5.22-6.07,5.3,5.3,0,0,1,1.37-3.28,6.13,6.13,0,0,1,4.41-2c3.65-.12,6.77,2.59,6.63,6.11C114.82,151.67,111.7,154,108.17,153.59Zm.08-10.21a5.07,5.07,0,0,0-3.7,1.59,3.92,3.92,0,0,0-1.06,2.5,5,5,0,0,0,4.4,4.81c3,.48,5.67-1.35,5.78-4S111.21,143.33,108.25,143.38Z" transform="translate(-10.96 -3.89)"/><path class="cls-5" d="M115.75,117.93a5.66,5.66,0,0,1-1.47-.2c-4.15-1.18-6.3-7.28-4.8-13.59,1.32-5.51,5.16-9.37,8.93-9a5.71,5.71,0,0,1,3.91,2.26c1.81,2.26,2.6,5.72,2.14,9.5C123.72,113.07,119.9,117.93,115.75,117.93Zm2.15-21.58c-3,0-6.06,3.48-7.16,8.08-1.33,5.56.46,11.08,3.9,12.06a4.18,4.18,0,0,0,1.11.15c3.51,0,6.77-4.36,7.44-9.94.4-3.39-.3-6.58-1.87-8.54a4.47,4.47,0,0,0-3-1.79Z" transform="translate(-10.96 -3.89)"/><path class="cls-24" d="M164.39,146.51s15.12,0,15.55,1.72-3.75,2.49-14.7,2.25Z" transform="translate(-10.96 -3.89)"/><path class="cls-25" d="M165.24,149.93s15.86-1,16.36,1-3.32,2.85-16.21,2.57Z" transform="translate(-10.96 -3.89)"/><path class="cls-26" d="M165.23,153.27s15.94-1.22,16.34.83-3.64,3.17-16.49,2.24Z" transform="translate(-10.96 -3.89)"/><path class="cls-3" d="M165.56,146.74s-13-.73-18.56,4c0,0,2.18,4.45,5.08,5.91s13.48-.42,13.48-.42S167,147,165.56,146.74Z" transform="translate(-10.96 -3.89)"/><rect class="cls-27" x="85.32" y="152.7" width="190.93" height="9.1"/><g class="cls-28"><path class="cls-29" d="M167.53,32.48c4-1.1,7.78.21,6.31-2.92,0,0-1.76-2.14-6.62-1.41s-5.15,3.15-4.91,3.76S163.56,33.57,167.53,32.48Z" transform="translate(-10.96 -3.89)"/><path class="cls-30" d="M189.63,30.53c3.59.4,4.32-.66,4.44-1.22s-.47-2.62-4.78-2.57-5.54,2.15-5.54,2.15C182.92,31.8,186,30.14,189.63,30.53Z" transform="translate(-10.96 -3.89)"/><path class="cls-31" d="M171.09,34.93c-6.23-.15-9.3,5.88-9.3,5.88-1.11,1.66,3.45,3.55,9.3,2.64S177.33,35.09,171.09,34.93Z" transform="translate(-10.96 -3.89)"/><path class="cls-32" d="M198.55,37.77s-3.29-4.92-8.69-4.15-4.31,7.2.87,7.39S199.68,39.1,198.55,37.77Z" transform="translate(-10.96 -3.89)"/><path class="cls-33" d="M192.52,46a1.24,1.24,0,0,0-1.46.92s-1.21,5.06-8.09,6a13.52,13.52,0,0,1-11.4-3.86,1.21,1.21,0,0,0-1.82,1.61,15.92,15.92,0,0,0,11.38,4.8,16.29,16.29,0,0,0,2.16-.14c8.55-1.11,10.09-7.56,10.15-7.83A1.23,1.23,0,0,0,192.52,46Z" transform="translate(-10.96 -3.89)"/></g><path class="cls-34" d="M143.4,31.21l-6.11-2.14-6.62,15.76,6.85,2.39A20,20,0,0,0,143.4,31.21Z" transform="translate(-10.96 -3.89)"/><path class="cls-35" d="M140.77,39a5.59,5.59,0,0,1-5.72-4.64l-4.38,10.43,6.85,2.39a20.49,20.49,0,0,0,5.13-8.48A6.49,6.49,0,0,1,140.77,39Z" transform="translate(-10.96 -3.89)"/><path class="cls-36" d="M138.18,44.05a5.54,5.54,0,0,1-5.59-4.17l-1.92,4.56,6.85,2.4a18.37,18.37,0,0,0,2.53-3.09A6.11,6.11,0,0,1,138.18,44.05Z" transform="translate(-10.96 -3.89)"/><path class="cls-37" d="M139,39c-1.78,4.37-5.45,7-8.2,5.89s-3.53-5.57-1.74-9.95,5.45-7,8.19-5.89S140.82,34.64,139,39Z" transform="translate(-10.96 -3.89)"/><path class="cls-5" d="M136.41,31.24c-2-.81-4.66,1.1-5.95,4.28s-.73,6.41,1.27,7.22,4.66-1.1,6-4.28S138.41,32.05,136.41,31.24Zm.9,7.07c-1.16,2.85-3.55,4.57-5.34,3.84s-2.31-3.63-1.14-6.48,3.55-4.57,5.34-3.84S138.47,35.46,137.31,38.31Z" transform="translate(-10.96 -3.89)"/></g></g></svg>